<svg xmlns="http://www.w3.org/2000/svg" width="184" height="75" fill="none" viewBox="0 0 184 75">
  <path fill="#fff" d="M23.712 34.904c-.096-.16-.432-.4-1.008-.72a19.007 19.007 0 00-2.16-1.104 20.912 20.912 0 00-2.832-1.008 11.3 11.3 0 00-3.072-.432c-1.344 0-2.384.24-3.12.72-.736.448-1.104 1.152-1.104 2.112 0 .768.272 1.376.816 1.824.576.448 1.392.848 2.448 1.2 1.056.32 2.352.704 3.888 1.152 2.176.576 4.064 1.28 5.664 2.112 1.6.8 2.816 1.84 3.648 3.12.864 1.28 1.296 2.976 1.296 5.088 0 1.92-.352 3.552-1.056 4.896a8.986 8.986 0 01-2.88 3.216c-1.184.8-2.544 1.392-4.08 1.776-1.536.352-3.12.528-4.752.528a28.69 28.69 0 01-5.136-.48 32.021 32.021 0 01-4.992-1.44A24.002 24.002 0 01.864 55.16l3.456-6.864c.128.16.544.464 1.248.912.704.416 1.568.864 2.592 1.344 1.056.448 2.224.848 3.504 1.2a14.6 14.6 0 003.888.528c1.408 0 2.448-.224 3.12-.672.704-.448 1.056-1.072 1.056-1.872 0-.864-.368-1.536-1.104-2.016-.704-.48-1.68-.912-2.928-1.296a310.572 310.572 0 00-4.224-1.296c-2.08-.64-3.808-1.36-5.184-2.16-1.344-.8-2.352-1.776-3.024-2.928-.64-1.152-.96-2.592-.96-4.32 0-2.4.56-4.416 1.68-6.048 1.152-1.664 2.688-2.912 4.608-3.744 1.92-.864 4.016-1.296 6.288-1.296 1.6 0 3.136.192 4.608.576 1.504.384 2.896.864 4.176 1.44a39.87 39.87 0 013.504 1.728l-3.456 6.528zm24.011 24.384c-2.56 0-4.88-.48-6.96-1.44a17.61 17.61 0 01-5.328-3.936 18.507 18.507 0 01-3.408-5.568c-.8-2.08-1.2-4.224-1.2-6.432 0-2.272.416-4.432 1.248-6.48a18.317 18.317 0 013.552-5.472 16.728 16.728 0 015.424-3.84c2.08-.928 4.352-1.392 6.816-1.392 2.528 0 4.816.496 6.864 1.488 2.08.96 3.856 2.272 5.328 3.936a17.881 17.881 0 013.456 5.616c.8 2.048 1.2 4.144 1.2 6.288 0 2.272-.416 4.432-1.248 6.48a17.73 17.73 0 01-3.552 5.52 17.751 17.751 0 01-5.424 3.84c-2.048.928-4.304 1.392-6.768 1.392zm-8.88-17.28c0 1.312.192 2.592.576 3.84a10.522 10.522 0 001.68 3.264 8.64 8.64 0 002.832 2.304c1.12.576 2.4.864 3.84.864 1.504 0 2.816-.288 3.936-.864a8.417 8.417 0 002.784-2.4 10.33 10.33 0 001.632-3.312c.384-1.248.576-2.512.576-3.792 0-1.312-.192-2.576-.576-3.792a9.987 9.987 0 00-1.728-3.264 7.906 7.906 0 00-2.832-2.304c-1.12-.544-2.384-.816-3.792-.816-1.504 0-2.816.288-3.936.864a8.543 8.543 0 00-2.784 2.352c-.736.96-1.296 2.064-1.68 3.312a13.397 13.397 0 00-.528 3.744zm38.293-2.496V59h-7.872V24.92h6.24l15.792 20.064V24.92h7.872V59h-6.432l-15.6-19.488zm37.142-14.592h8.496L134.486 59h-8.064l-2.64-7.632h-10.608L110.582 59h-8.064l11.76-34.08zm8.208 21.024l-3.984-13.104-4.08 13.104h8.064zM137.842 59V24.92h15.36c1.6 0 3.072.336 4.416 1.008 1.376.64 2.56 1.52 3.552 2.64a11.973 11.973 0 012.304 3.696c.576 1.376.864 2.768.864 4.176 0 1.408-.224 2.752-.672 4.032a11.557 11.557 0 01-1.92 3.408 10.507 10.507 0 01-2.976 2.448L166.258 59h-8.688l-6.528-10.992h-5.328V59h-7.872zm7.872-17.856h7.2c.64 0 1.2-.192 1.68-.576.512-.416.928-.976 1.248-1.68.32-.704.48-1.52.48-2.448 0-.928-.192-1.728-.576-2.4-.352-.704-.8-1.248-1.344-1.632-.544-.384-1.12-.576-1.728-.576h-6.96v9.312zM171.5 55.938c0-.98.302-1.803.906-2.47.625-.687 1.521-1.03 2.688-1.03 1.166 0 2.052.343 2.656 1.03.625.667.938 1.49.938 2.47 0 .958-.313 1.77-.938 2.437-.604.667-1.49 1-2.656 1-1.167 0-2.063-.333-2.688-1-.604-.667-.906-1.48-.906-2.438z"/>
</svg>
